STARTFONT 2.1
FONT --Helv7Rps-Regular-R-Normal--11-110-72-72-P-64-FONTSPECIFIC-0
SIZE 11 72 72
FONTBOUNDINGBOX 9 10 0 -2
METRICSSET 2
STARTPROPERTIES 19
FONT_ASCENT 9
FONT_DESCENT 2
PIXEL_SIZE 11
RESOLUTION_X 72
RESOLUTION_Y 72
POINT_SIZE 110
FACE_NAME "Modern 7-point"
FOUNDRY ""
FAMILY_NAME "Helv7Rps"
WEIGHT_NAME "Regular"
RELATIVE_WEIGHT 50
SLANT "R"
SPACING "P"
SETWIDTH_NAME "Normal"
RELATIVE_SETWIDTH 50
ADD_STYLE_NAME ""
AVERAGE_WIDTH 64
CHARSET_REGISTRY "FONTSPECIFIC"
CHARSET_ENCODING "0"
ENDPROPERTIES
CHARS 193
STARTCHAR char08
ENCODING 8
SWIDTH 727 0
DWIDTH 8 0
BBX 6 7 1 -1
VVECTOR 4 9
SWIDTH1 0 -1000
DWIDTH1 0 -11
BITMAP 
80
80
A0
FC
A0
80
80
ENDCHAR
STARTCHAR char09
ENCODING 9
SWIDTH 727 0
DWIDTH 8 0
BBX 6 7 1 -1
VVECTOR 4 9
SWIDTH1 0 -1000
DWIDTH1 0 -11
BITMAP 
04
04
14
FC
14
04
04
ENDCHAR
STARTCHAR char0C
ENCODING 12
SWIDTH 727 0
DWIDTH 8 0
BBX 6 7 1 0
VVECTOR 4 9
SWIDTH1 0 -1000
DWIDTH1 0 -11
BITMAP 
FC
84
84
84
84
B4
78
ENDCHAR
STARTCHAR char0D
ENCODING 13
SWIDTH 727 0
DWIDTH 8 0
BBX 6 7 1 -1
VVECTOR 4 9
SWIDTH1 0 -1000
DWIDTH1 0 -11
BITMAP 
38
04
04
04
44
F8
40
ENDCHAR
STARTCHAR char1C
ENCODING 28
SWIDTH 545 0
DWIDTH 6 0
BBX 5 3 0 1
VVECTOR 3 9
SWIDTH1 0 -1000
DWIDTH1 0 -11
BITMAP 
40
F8
40
ENDCHAR
STARTCHAR char1D
ENCODING 29
SWIDTH 545 0
DWIDTH 6 0
BBX 5 3 0 1
VVECTOR 3 9
SWIDTH1 0 -1000
DWIDTH1 0 -11
BITMAP 
10
F8
10
ENDCHAR
STARTCHAR char1E
ENCODING 30
SWIDTH 545 0
DWIDTH 6 0
BBX 3 5 1 1
VVECTOR 3 9
SWIDTH1 0 -1000
DWIDTH1 0 -11
BITMAP 
40
E0
40
40
40
ENDCHAR
STARTCHAR char1F
ENCODING 31
SWIDTH 545 0
DWIDTH 6 0
BBX 3 5 1 1
VVECTOR 3 9
SWIDTH1 0 -1000
DWIDTH1 0 -11
BITMAP 
40
40
40
E0
40
ENDCHAR
STARTCHAR char20
ENCODING 32
SWIDTH 364 0
DWIDTH 4 0
BBX 0 0 0 -2
VVECTOR 0 -2
SWIDTH1 0 0
DWIDTH1 0 0
BITMAP 
ENDCHAR
STARTCHAR char21
ENCODING 33
SWIDTH 455 0
DWIDTH 5 0
BBX 1 6 2 0
VVECTOR 3 9
SWIDTH1 0 -1000
DWIDTH1 0 -11
BITMAP 
80
80
80
80
00
80
ENDCHAR
STARTCHAR char22
ENCODING 34
SWIDTH 545 0
DWIDTH 6 0
BBX 3 2 1 4
VVECTOR 3 9
SWIDTH1 0 -1000
DWIDTH1 0 -11
BITMAP 
A0
A0
ENDCHAR
STARTCHAR char23
ENCODING 35
SWIDTH 818 0
DWIDTH 9 0
BBX 8 5 0 1
VVECTOR 4 9
SWIDTH1 0 -1000
DWIDTH1 0 -11
BITMAP 
12
7F
24
FE
48
ENDCHAR
STARTCHAR char24
ENCODING 36
SWIDTH 545 0
DWIDTH 6 0
BBX 4 8 1 -1
VVECTOR 3 9
SWIDTH1 0 -1000
DWIDTH1 0 -11
BITMAP 
20
60
90
40
20
90
60
20
ENDCHAR
STARTCHAR char25
ENCODING 37
SWIDTH 909 0
DWIDTH 10 0
BBX 8 6 1 0
VVECTOR 5 9
SWIDTH1 0 -1000
DWIDTH1 0 -11
BITMAP 
60
94
68
16
29
06
ENDCHAR
STARTCHAR char26
ENCODING 38
SWIDTH 727 0
DWIDTH 8 0
BBX 6 6 1 0
VVECTOR 4 9
SWIDTH1 0 -1000
DWIDTH1 0 -11
BITMAP 
60
90
60
94
88
74
ENDCHAR
STARTCHAR char27
ENCODING 39
SWIDTH 364 0
DWIDTH 4 0
BBX 1 2 1 4
VVECTOR 2 9
SWIDTH1 0 -1000
DWIDTH1 0 -11
BITMAP 
80
80
ENDCHAR
STARTCHAR char28
ENCODING 40
SWIDTH 364 0
DWIDTH 4 0
BBX 3 9 0 -2
VVECTOR 2 9
SWIDTH1 0 -1000
DWIDTH1 0 -11
BITMAP 
20
40
80
80
80
80
80
40
20
ENDCHAR
STARTCHAR char29
ENCODING 41
SWIDTH 364 0
DWIDTH 4 0
BBX 3 9 0 -2
VVECTOR 2 9
SWIDTH1 0 -1000
DWIDTH1 0 -11
BITMAP 
80
40
20
20
20
20
20
40
80
ENDCHAR
STARTCHAR char2A
ENCODING 42
SWIDTH 636 0
DWIDTH 7 0
BBX 5 5 1 1
VVECTOR 4 9
SWIDTH1 0 -1000
DWIDTH1 0 -11
BITMAP 
20
A8
70
A8
20
ENDCHAR
STARTCHAR char2B
ENCODING 43
SWIDTH 818 0
DWIDTH 9 0
BBX 7 5 1 0
VVECTOR 5 9
SWIDTH1 0 -1000
DWIDTH1 0 -11
BITMAP 
10
10
FE
10
10
ENDCHAR
STARTCHAR char2C
ENCODING 44
SWIDTH 364 0
DWIDTH 4 0
BBX 2 2 0 -1
VVECTOR 1 9
SWIDTH1 0 -1000
DWIDTH1 0 -11
BITMAP 
40
80
ENDCHAR
STARTCHAR char2D
ENCODING 45
SWIDTH 818 0
DWIDTH 9 0
BBX 7 1 1 2
VVECTOR 5 9
SWIDTH1 0 -1000
DWIDTH1 0 -11
BITMAP 
FE
ENDCHAR
STARTCHAR char2E
ENCODING 46
SWIDTH 364 0
DWIDTH 4 0
BBX 2 1 1 0
VVECTOR 2 9
SWIDTH1 0 -1000
DWIDTH1 0 -11
BITMAP 
C0
ENDCHAR
STARTCHAR char2F
ENCODING 47
SWIDTH 455 0
DWIDTH 5 0
BBX 3 6 1 0
VVECTOR 3 9
SWIDTH1 0 -1000
DWIDTH1 0 -11
BITMAP 
20
20
40
40
80
80
ENDCHAR
STARTCHAR char30
ENCODING 48
SWIDTH 545 0
DWIDTH 6 0
BBX 5 6 0 0
VVECTOR 3 9
SWIDTH1 0 -1000
DWIDTH1 0 -11
BITMAP 
70
88
88
88
88
70
ENDCHAR
STARTCHAR char31
ENCODING 49
SWIDTH 545 0
DWIDTH 6 0
BBX 3 6 1 0
VVECTOR 3 9
SWIDTH1 0 -1000
DWIDTH1 0 -11
BITMAP 
20
E0
20
20
20
20
ENDCHAR
STARTCHAR char32
ENCODING 50
SWIDTH 545 0
DWIDTH 6 0
BBX 5 6 0 0
VVECTOR 3 9
SWIDTH1 0 -1000
DWIDTH1 0 -11
BITMAP 
70
88
10
20
40
F8
ENDCHAR
STARTCHAR char33
ENCODING 51
SWIDTH 545 0
DWIDTH 6 0
BBX 5 6 0 0
VVECTOR 3 9
SWIDTH1 0 -1000
DWIDTH1 0 -11
BITMAP 
70
88
30
08
88
70
ENDCHAR
STARTCHAR char34
ENCODING 52
SWIDTH 545 0
DWIDTH 6 0
BBX 5 6 0 0
VVECTOR 3 9
SWIDTH1 0 -1000
DWIDTH1 0 -11
BITMAP 
10
30
50
90
F8
10
ENDCHAR
STARTCHAR char35
ENCODING 53
SWIDTH 545 0
DWIDTH 6 0
BBX 5 6 0 0
VVECTOR 3 9
SWIDTH1 0 -1000
DWIDTH1 0 -11
BITMAP 
78
40
70
08
88
70
ENDCHAR
STARTCHAR char36
ENCODING 54
SWIDTH 545 0
DWIDTH 6 0
BBX 5 6 0 0
VVECTOR 3 9
SWIDTH1 0 -1000
DWIDTH1 0 -11
BITMAP 
70
80
F0
88
88
70
ENDCHAR
STARTCHAR char37
ENCODING 55
SWIDTH 545 0
DWIDTH 6 0
BBX 5 6 0 0
VVECTOR 3 9
SWIDTH1 0 -1000
DWIDTH1 0 -11
BITMAP 
F8
10
20
20
40
40
ENDCHAR
STARTCHAR char38
ENCODING 56
SWIDTH 545 0
DWIDTH 6 0
BBX 5 6 0 0
VVECTOR 3 9
SWIDTH1 0 -1000
DWIDTH1 0 -11
BITMAP 
70
88
70
88
88
70
ENDCHAR
STARTCHAR char39
ENCODING 57
SWIDTH 545 0
DWIDTH 6 0
BBX 5 6 0 0
VVECTOR 3 9
SWIDTH1 0 -1000
DWIDTH1 0 -11
BITMAP 
70
88
88
78
08
70
ENDCHAR
STARTCHAR char3A
ENCODING 58
SWIDTH 364 0
DWIDTH 4 0
BBX 2 4 1 0
VVECTOR 2 9
SWIDTH1 0 -1000
DWIDTH1 0 -11
BITMAP 
C0
00
00
C0
ENDCHAR
STARTCHAR char3B
ENCODING 59
SWIDTH 364 0
DWIDTH 4 0
BBX 2 5 1 -1
VVECTOR 2 9
SWIDTH1 0 -1000
DWIDTH1 0 -11
BITMAP 
C0
00
00
40
80
ENDCHAR
STARTCHAR char3C
ENCODING 60
SWIDTH 455 0
DWIDTH 5 0
BBX 3 5 1 0
VVECTOR 3 9
SWIDTH1 0 -1000
DWIDTH1 0 -11
BITMAP 
20
40
80
40
20
ENDCHAR
STARTCHAR char3D
ENCODING 61
SWIDTH 818 0
DWIDTH 9 0
BBX 7 3 1 1
VVECTOR 5 9
SWIDTH1 0 -1000
DWIDTH1 0 -11
BITMAP 
FE
00
FE
ENDCHAR
STARTCHAR char3E
ENCODING 62
SWIDTH 455 0
DWIDTH 5 0
BBX 3 5 1 0
VVECTOR 3 9
SWIDTH1 0 -1000
DWIDTH1 0 -11
BITMAP 
80
40
20
40
80
ENDCHAR
STARTCHAR char3F
ENCODING 63
SWIDTH 636 0
DWIDTH 7 0
BBX 5 6 1 0
VVECTOR 4 9
SWIDTH1 0 -1000
DWIDTH1 0 -11
BITMAP 
70
88
10
20
00
20
ENDCHAR
STARTCHAR char40
ENCODING 64
SWIDTH 909 0
DWIDTH 10 0
BBX 8 7 1 0
VVECTOR 5 9
SWIDTH1 0 -1000
DWIDTH1 0 -11
BITMAP 
3E
41
9D
A5
9A
40
3C
ENDCHAR
STARTCHAR char41
ENCODING 65
SWIDTH 545 0
DWIDTH 6 0
BBX 5 6 0 0
VVECTOR 3 9
SWIDTH1 0 -1000
DWIDTH1 0 -11
BITMAP 
70
88
88
F8
88
88
ENDCHAR
STARTCHAR char42
ENCODING 66
SWIDTH 545 0
DWIDTH 6 0
BBX 5 6 0 0
VVECTOR 3 9
SWIDTH1 0 -1000
DWIDTH1 0 -11
BITMAP 
F0
88
F0
88
88
F0
ENDCHAR
STARTCHAR char43
ENCODING 67
SWIDTH 545 0
DWIDTH 6 0
BBX 5 6 0 0
VVECTOR 3 9
SWIDTH1 0 -1000
DWIDTH1 0 -11
BITMAP 
70
88
80
80
88
70
ENDCHAR
STARTCHAR char44
ENCODING 68
SWIDTH 545 0
DWIDTH 6 0
BBX 5 6 0 0
VVECTOR 3 9
SWIDTH1 0 -1000
DWIDTH1 0 -11
BITMAP 
F0
88
88
88
88
F0
ENDCHAR
STARTCHAR char45
ENCODING 69
SWIDTH 455 0
DWIDTH 5 0
BBX 4 6 0 0
VVECTOR 2 9
SWIDTH1 0 -1000
DWIDTH1 0 -11
BITMAP 
F0
80
E0
80
80
F0
ENDCHAR
STARTCHAR char46
ENCODING 70
SWIDTH 455 0
DWIDTH 5 0
BBX 4 6 0 0
VVECTOR 2 9
SWIDTH1 0 -1000
DWIDTH1 0 -11
BITMAP 
F0
80
E0
80
80
80
ENDCHAR
STARTCHAR char47
ENCODING 71
SWIDTH 545 0
DWIDTH 6 0
BBX 5 6 0 0
VVECTOR 3 9
SWIDTH1 0 -1000
DWIDTH1 0 -11
BITMAP 
70
88
80
98
88
78
ENDCHAR
STARTCHAR char48
ENCODING 72
SWIDTH 545 0
DWIDTH 6 0
BBX 5 6 0 0
VVECTOR 3 9
SWIDTH1 0 -1000
DWIDTH1 0 -11
BITMAP 
88
88
F8
88
88
88
ENDCHAR
STARTCHAR char49
ENCODING 73
SWIDTH 273 0
DWIDTH 3 0
BBX 1 6 1 0
VVECTOR 2 9
SWIDTH1 0 -1000
DWIDTH1 0 -11
BITMAP 
80
80
80
80
80
80
ENDCHAR
STARTCHAR char4A
ENCODING 74
SWIDTH 455 0
DWIDTH 5 0
BBX 4 6 0 0
VVECTOR 2 9
SWIDTH1 0 -1000
DWIDTH1 0 -11
BITMAP 
10
10
10
10
90
60
ENDCHAR
STARTCHAR char4B
ENCODING 75
SWIDTH 545 0
DWIDTH 6 0
BBX 5 6 0 0
VVECTOR 3 9
SWIDTH1 0 -1000
DWIDTH1 0 -11
BITMAP 
88
90
A0
A0
90
88
ENDCHAR
STARTCHAR char4C
ENCODING 76
SWIDTH 455 0
DWIDTH 5 0
BBX 4 6 0 0
VVECTOR 2 9
SWIDTH1 0 -1000
DWIDTH1 0 -11
BITMAP 
80
80
80
80
80
F0
ENDCHAR
STARTCHAR char4D
ENCODING 77
SWIDTH 727 0
DWIDTH 8 0
BBX 7 6 0 0
VVECTOR 4 9
SWIDTH1 0 -1000
DWIDTH1 0 -11
BITMAP 
82
C6
AA
92
82
82
ENDCHAR
STARTCHAR char4E
ENCODING 78
SWIDTH 545 0
DWIDTH 6 0
BBX 5 6 0 0
VVECTOR 3 9
SWIDTH1 0 -1000
DWIDTH1 0 -11
BITMAP 
88
C8
A8
98
88
88
ENDCHAR
STARTCHAR char4F
ENCODING 79
SWIDTH 545 0
DWIDTH 6 0
BBX 5 6 0 0
VVECTOR 3 9
SWIDTH1 0 -1000
DWIDTH1 0 -11
BITMAP 
70
88
88
88
88
70
ENDCHAR
STARTCHAR char50
ENCODING 80
SWIDTH 545 0
DWIDTH 6 0
BBX 5 6 0 0
VVECTOR 3 9
SWIDTH1 0 -1000
DWIDTH1 0 -11
BITMAP 
F0
88
88
F0
80
80
ENDCHAR
STARTCHAR char51
ENCODING 81
SWIDTH 545 0
DWIDTH 6 0
BBX 5 7 0 -1
VVECTOR 3 9
SWIDTH1 0 -1000
DWIDTH1 0 -11
BITMAP 
70
88
88
88
A8
70
10
ENDCHAR
STARTCHAR char52
ENCODING 82
SWIDTH 545 0
DWIDTH 6 0
BBX 5 6 0 0
VVECTOR 3 9
SWIDTH1 0 -1000
DWIDTH1 0 -11
BITMAP 
F0
88
88
F0
88
88
ENDCHAR
STARTCHAR char53
ENCODING 83
SWIDTH 636 0
DWIDTH 7 0
BBX 6 6 0 0
VVECTOR 3 9
SWIDTH1 0 -1000
DWIDTH1 0 -11
BITMAP 
78
84
60
18
84
78
ENDCHAR
STARTCHAR char54
ENCODING 84
SWIDTH 545 0
DWIDTH 6 0
BBX 5 6 0 0
VVECTOR 3 9
SWIDTH1 0 -1000
DWIDTH1 0 -11
BITMAP 
F8
20
20
20
20
20
ENDCHAR
STARTCHAR char55
ENCODING 85
SWIDTH 545 0
DWIDTH 6 0
BBX 5 6 0 0
VVECTOR 3 9
SWIDTH1 0 -1000
DWIDTH1 0 -11
BITMAP 
88
88
88
88
88
70
ENDCHAR
STARTCHAR char56
ENCODING 86
SWIDTH 545 0
DWIDTH 6 0
BBX 5 6 0 0
VVECTOR 3 9
SWIDTH1 0 -1000
DWIDTH1 0 -11
BITMAP 
88
88
50
50
20
20
ENDCHAR
STARTCHAR char57
ENCODING 87
SWIDTH 727 0
DWIDTH 8 0
BBX 7 6 0 0
VVECTOR 4 9
SWIDTH1 0 -1000
DWIDTH1 0 -11
BITMAP 
82
92
92
AA
44
44
ENDCHAR
STARTCHAR char58
ENCODING 88
SWIDTH 545 0
DWIDTH 6 0
BBX 5 6 0 0
VVECTOR 3 9
SWIDTH1 0 -1000
DWIDTH1 0 -11
BITMAP 
88
50
20
20
50
88
ENDCHAR
STARTCHAR char59
ENCODING 89
SWIDTH 545 0
DWIDTH 6 0
BBX 5 6 0 0
VVECTOR 3 9
SWIDTH1 0 -1000
DWIDTH1 0 -11
BITMAP 
88
88
50
20
20
20
ENDCHAR
STARTCHAR char5A
ENCODING 90
SWIDTH 455 0
DWIDTH 5 0
BBX 4 6 0 0
VVECTOR 2 9
SWIDTH1 0 -1000
DWIDTH1 0 -11
BITMAP 
F0
10
20
40
80
F0
ENDCHAR
STARTCHAR char5B
ENCODING 91
SWIDTH 364 0
DWIDTH 4 0
BBX 3 9 0 -2
VVECTOR 2 9
SWIDTH1 0 -1000
DWIDTH1 0 -11
BITMAP 
E0
80
80
80
80
80
80
80
E0
ENDCHAR
STARTCHAR char5C
ENCODING 92
SWIDTH 455 0
DWIDTH 5 0
BBX 3 6 1 0
VVECTOR 3 9
SWIDTH1 0 -1000
DWIDTH1 0 -11
BITMAP 
80
80
40
40
20
20
ENDCHAR
STARTCHAR char5D
ENCODING 93
SWIDTH 364 0
DWIDTH 4 0
BBX 3 9 0 -2
VVECTOR 2 9
SWIDTH1 0 -1000
DWIDTH1 0 -11
BITMAP 
E0
20
20
20
20
20
20
20
E0
ENDCHAR
STARTCHAR char5E
ENCODING 94
SWIDTH 545 0
DWIDTH 6 0
BBX 4 2 1 6
VVECTOR 3 9
SWIDTH1 0 -1000
DWIDTH1 0 -11
BITMAP 
60
90
ENDCHAR
STARTCHAR char5F
ENCODING 95
SWIDTH 818 0
DWIDTH 9 0
BBX 9 1 0 -2
VVECTOR 5 9
SWIDTH1 0 -1000
DWIDTH1 0 -11
BITMAP 
FF80
ENDCHAR
STARTCHAR char60
ENCODING 96
SWIDTH 545 0
DWIDTH 6 0
BBX 2 2 2 6
VVECTOR 3 9
SWIDTH1 0 -1000
DWIDTH1 0 -11
BITMAP 
80
40
ENDCHAR
STARTCHAR char61
ENCODING 97
SWIDTH 636 0
DWIDTH 7 0
BBX 5 5 1 0
VVECTOR 4 9
SWIDTH1 0 -1000
DWIDTH1 0 -11
BITMAP 
70
08
78
88
78
ENDCHAR
STARTCHAR char62
ENCODING 98
SWIDTH 636 0
DWIDTH 7 0
BBX 5 6 1 0
VVECTOR 4 9
SWIDTH1 0 -1000
DWIDTH1 0 -11
BITMAP 
80
B0
C8
88
C8
B0
ENDCHAR
STARTCHAR char63
ENCODING 99
SWIDTH 636 0
DWIDTH 7 0
BBX 5 5 1 0
VVECTOR 4 9
SWIDTH1 0 -1000
DWIDTH1 0 -11
BITMAP 
70
88
80
88
70
ENDCHAR
STARTCHAR char64
ENCODING 100
SWIDTH 636 0
DWIDTH 7 0
BBX 5 6 1 0
VVECTOR 4 9
SWIDTH1 0 -1000
DWIDTH1 0 -11
BITMAP 
08
68
98
88
98
68
ENDCHAR
STARTCHAR char65
ENCODING 101
SWIDTH 636 0
DWIDTH 7 0
BBX 5 5 1 0
VVECTOR 4 9
SWIDTH1 0 -1000
DWIDTH1 0 -11
BITMAP 
70
88
F8
80
78
ENDCHAR
STARTCHAR char66
ENCODING 102
SWIDTH 455 0
DWIDTH 5 0
BBX 3 6 1 0
VVECTOR 3 9
SWIDTH1 0 -1000
DWIDTH1 0 -11
BITMAP 
60
40
E0
40
40
40
ENDCHAR
STARTCHAR char67
ENCODING 103
SWIDTH 636 0
DWIDTH 7 0
BBX 5 7 1 -2
VVECTOR 4 9
SWIDTH1 0 -1000
DWIDTH1 0 -11
BITMAP 
68
98
88
98
68
08
70
ENDCHAR
STARTCHAR char68
ENCODING 104
SWIDTH 636 0
DWIDTH 7 0
BBX 5 6 1 0
VVECTOR 4 9
SWIDTH1 0 -1000
DWIDTH1 0 -11
BITMAP 
80
B0
C8
88
88
88
ENDCHAR
STARTCHAR char69
ENCODING 105
SWIDTH 273 0
DWIDTH 3 0
BBX 1 7 1 0
VVECTOR 2 9
SWIDTH1 0 -1000
DWIDTH1 0 -11
BITMAP 
80
00
80
80
80
80
80
ENDCHAR
STARTCHAR char6A
ENCODING 106
SWIDTH 364 0
DWIDTH 4 0
BBX 3 9 0 -2
VVECTOR 2 9
SWIDTH1 0 -1000
DWIDTH1 0 -11
BITMAP 
20
00
20
20
20
20
20
20
C0
ENDCHAR
STARTCHAR char6B
ENCODING 107
SWIDTH 545 0
DWIDTH 6 0
BBX 4 6 1 0
VVECTOR 3 9
SWIDTH1 0 -1000
DWIDTH1 0 -11
BITMAP 
80
90
A0
C0
A0
90
ENDCHAR
STARTCHAR char6C
ENCODING 108
SWIDTH 273 0
DWIDTH 3 0
BBX 1 6 1 0
VVECTOR 2 9
SWIDTH1 0 -1000
DWIDTH1 0 -11
BITMAP 
80
80
80
80
80
80
ENDCHAR
STARTCHAR char6D
ENCODING 109
SWIDTH 818 0
DWIDTH 9 0
BBX 7 5 1 0
VVECTOR 5 9
SWIDTH1 0 -1000
DWIDTH1 0 -11
BITMAP 
B6
DA
92
92
92
ENDCHAR
STARTCHAR char6E
ENCODING 110
SWIDTH 636 0
DWIDTH 7 0
BBX 5 5 1 0
VVECTOR 4 9
SWIDTH1 0 -1000
DWIDTH1 0 -11
BITMAP 
B0
C8
88
88
88
ENDCHAR
STARTCHAR char6F
ENCODING 111
SWIDTH 636 0
DWIDTH 7 0
BBX 5 5 1 0
VVECTOR 4 9
SWIDTH1 0 -1000
DWIDTH1 0 -11
BITMAP 
70
88
88
88
70
ENDCHAR
STARTCHAR char70
ENCODING 112
SWIDTH 636 0
DWIDTH 7 0
BBX 5 7 1 -2
VVECTOR 4 9
SWIDTH1 0 -1000
DWIDTH1 0 -11
BITMAP 
B0
C8
88
C8
B0
80
80
ENDCHAR
STARTCHAR char71
ENCODING 113
SWIDTH 636 0
DWIDTH 7 0
BBX 5 7 1 -2
VVECTOR 4 9
SWIDTH1 0 -1000
DWIDTH1 0 -11
BITMAP 
68
98
88
98
68
08
08
ENDCHAR
STARTCHAR char72
ENCODING 114
SWIDTH 455 0
DWIDTH 5 0
BBX 4 5 1 0
VVECTOR 3 9
SWIDTH1 0 -1000
DWIDTH1 0 -11
BITMAP 
B0
C0
80
80
80
ENDCHAR
STARTCHAR char73
ENCODING 115
SWIDTH 545 0
DWIDTH 6 0
BBX 4 5 1 0
VVECTOR 3 9
SWIDTH1 0 -1000
DWIDTH1 0 -11
BITMAP 
70
80
60
10
E0
ENDCHAR
STARTCHAR char74
ENCODING 116
SWIDTH 455 0
DWIDTH 5 0
BBX 3 6 1 0
VVECTOR 3 9
SWIDTH1 0 -1000
DWIDTH1 0 -11
BITMAP 
40
E0
40
40
40
60
ENDCHAR
STARTCHAR char75
ENCODING 117
SWIDTH 636 0
DWIDTH 7 0
BBX 5 5 1 0
VVECTOR 4 9
SWIDTH1 0 -1000
DWIDTH1 0 -11
BITMAP 
88
88
88
98
68
ENDCHAR
STARTCHAR char76
ENCODING 118
SWIDTH 636 0
DWIDTH 7 0
BBX 5 5 1 0
VVECTOR 4 9
SWIDTH1 0 -1000
DWIDTH1 0 -11
BITMAP 
88
88
50
50
20
ENDCHAR
STARTCHAR char77
ENCODING 119
SWIDTH 818 0
DWIDTH 9 0
BBX 7 5 1 0
VVECTOR 5 9
SWIDTH1 0 -1000
DWIDTH1 0 -11
BITMAP 
82
92
AA
44
44
ENDCHAR
STARTCHAR char78
ENCODING 120
SWIDTH 455 0
DWIDTH 5 0
BBX 5 5 0 0
VVECTOR 3 9
SWIDTH1 0 -1000
DWIDTH1 0 -11
BITMAP 
88
50
20
50
88
ENDCHAR
STARTCHAR char79
ENCODING 121
SWIDTH 636 0
DWIDTH 7 0
BBX 5 7 1 -2
VVECTOR 4 9
SWIDTH1 0 -1000
DWIDTH1 0 -11
BITMAP 
88
88
50
50
20
20
C0
ENDCHAR
STARTCHAR char7A
ENCODING 122
SWIDTH 545 0
DWIDTH 6 0
BBX 4 5 1 0
VVECTOR 3 9
SWIDTH1 0 -1000
DWIDTH1 0 -11
BITMAP 
F0
20
40
80
F0
ENDCHAR
STARTCHAR char7B
ENCODING 123
SWIDTH 364 0
DWIDTH 4 0
BBX 3 9 0 -2
VVECTOR 2 9
SWIDTH1 0 -1000
DWIDTH1 0 -11
BITMAP 
20
40
40
40
80
40
40
40
20
ENDCHAR
STARTCHAR char7C
ENCODING 124
SWIDTH 273 0
DWIDTH 3 0
BBX 1 8 1 -2
VVECTOR 2 9
SWIDTH1 0 -1000
DWIDTH1 0 -11
BITMAP 
80
80
80
80
80
80
80
80
ENDCHAR
STARTCHAR char7D
ENCODING 125
SWIDTH 364 0
DWIDTH 4 0
BBX 3 9 0 -2
VVECTOR 2 9
SWIDTH1 0 -1000
DWIDTH1 0 -11
BITMAP 
80
40
40
40
20
40
40
40
80
ENDCHAR
STARTCHAR char7E
ENCODING 126
SWIDTH 636 0
DWIDTH 7 0
BBX 5 2 1 6
VVECTOR 4 9
SWIDTH1 0 -1000
DWIDTH1 0 -11
BITMAP 
68
B0
ENDCHAR
STARTCHAR char80
ENCODING 128
SWIDTH 636 0
DWIDTH 7 0
BBX 5 8 1 0
VVECTOR 4 9
SWIDTH1 0 -1000
DWIDTH1 0 -11
BITMAP 
50
00
70
88
88
F8
88
88
ENDCHAR
STARTCHAR char81
ENCODING 129
SWIDTH 636 0
DWIDTH 7 0
BBX 5 8 1 0
VVECTOR 4 9
SWIDTH1 0 -1000
DWIDTH1 0 -11
BITMAP 
20
50
20
70
88
F8
88
88
ENDCHAR
STARTCHAR char82
ENCODING 130
SWIDTH 636 0
DWIDTH 7 0
BBX 5 8 1 -2
VVECTOR 4 9
SWIDTH1 0 -1000
DWIDTH1 0 -11
BITMAP 
70
88
80
80
88
70
20
60
ENDCHAR
STARTCHAR char83
ENCODING 131
SWIDTH 545 0
DWIDTH 6 0
BBX 4 8 1 0
VVECTOR 3 9
SWIDTH1 0 -1000
DWIDTH1 0 -11
BITMAP 
10
20
F0
80
F0
80
80
F0
ENDCHAR
STARTCHAR char84
ENCODING 132
SWIDTH 636 0
DWIDTH 7 0
BBX 5 8 1 0
VVECTOR 4 9
SWIDTH1 0 -1000
DWIDTH1 0 -11
BITMAP 
68
B0
00
88
C8
A8
98
88
ENDCHAR
STARTCHAR char85
ENCODING 133
SWIDTH 636 0
DWIDTH 7 0
BBX 5 8 1 0
VVECTOR 4 9
SWIDTH1 0 -1000
DWIDTH1 0 -11
BITMAP 
50
00
70
88
88
88
88
70
ENDCHAR
STARTCHAR char86
ENCODING 134
SWIDTH 636 0
DWIDTH 7 0
BBX 5 8 1 0
VVECTOR 4 9
SWIDTH1 0 -1000
DWIDTH1 0 -11
BITMAP 
50
00
88
88
88
88
88
70
ENDCHAR
STARTCHAR char87
ENCODING 135
SWIDTH 545 0
DWIDTH 6 0
BBX 4 8 1 0
VVECTOR 3 9
SWIDTH1 0 -1000
DWIDTH1 0 -11
BITMAP 
10
20
00
60
10
70
90
70
ENDCHAR
STARTCHAR char88
ENCODING 136
SWIDTH 545 0
DWIDTH 6 0
BBX 4 8 1 0
VVECTOR 3 9
SWIDTH1 0 -1000
DWIDTH1 0 -11
BITMAP 
40
20
00
60
10
70
90
70
ENDCHAR
STARTCHAR char89
ENCODING 137
SWIDTH 545 0
DWIDTH 6 0
BBX 4 8 1 0
VVECTOR 3 9
SWIDTH1 0 -1000
DWIDTH1 0 -11
BITMAP 
20
50
00
60
10
70
90
70
ENDCHAR
STARTCHAR char8A
ENCODING 138
SWIDTH 545 0
DWIDTH 6 0
BBX 4 7 1 0
VVECTOR 3 9
SWIDTH1 0 -1000
DWIDTH1 0 -11
BITMAP 
50
00
60
10
70
90
70
ENDCHAR
STARTCHAR char8B
ENCODING 139
SWIDTH 545 0
DWIDTH 6 0
BBX 5 8 1 0
VVECTOR 4 9
SWIDTH1 0 -1000
DWIDTH1 0 -11
BITMAP 
68
B0
00
60
10
70
90
70
ENDCHAR
STARTCHAR char8C
ENCODING 140
SWIDTH 545 0
DWIDTH 6 0
BBX 4 8 1 0
VVECTOR 3 9
SWIDTH1 0 -1000
DWIDTH1 0 -11
BITMAP 
20
50
20
70
10
70
90
70
ENDCHAR
STARTCHAR char8D
ENCODING 141
SWIDTH 545 0
DWIDTH 6 0
BBX 4 7 1 -2
VVECTOR 3 9
SWIDTH1 0 -1000
DWIDTH1 0 -11
BITMAP 
60
90
80
90
60
20
60
ENDCHAR
STARTCHAR char8E
ENCODING 142
SWIDTH 545 0
DWIDTH 6 0
BBX 4 8 1 0
VVECTOR 3 9
SWIDTH1 0 -1000
DWIDTH1 0 -11
BITMAP 
10
20
00
60
90
F0
80
70
ENDCHAR
STARTCHAR char8F
ENCODING 143
SWIDTH 545 0
DWIDTH 6 0
BBX 4 8 1 0
VVECTOR 3 9
SWIDTH1 0 -1000
DWIDTH1 0 -11
BITMAP 
40
20
00
60
90
F0
80
70
ENDCHAR
STARTCHAR char90
ENCODING 144
SWIDTH 545 0
DWIDTH 6 0
BBX 4 8 1 0
VVECTOR 3 9
SWIDTH1 0 -1000
DWIDTH1 0 -11
BITMAP 
20
50
00
60
90
F0
80
70
ENDCHAR
STARTCHAR char91
ENCODING 145
SWIDTH 545 0
DWIDTH 6 0
BBX 4 7 1 0
VVECTOR 3 9
SWIDTH1 0 -1000
DWIDTH1 0 -11
BITMAP 
90
00
60
90
F0
80
70
ENDCHAR
STARTCHAR char92
ENCODING 146
SWIDTH 273 0
DWIDTH 3 0
BBX 2 8 1 0
VVECTOR 2 9
SWIDTH1 0 -1000
DWIDTH1 0 -11
BITMAP 
40
80
00
80
80
80
80
80
ENDCHAR
STARTCHAR char93
ENCODING 147
SWIDTH 273 0
DWIDTH 3 0
BBX 2 8 0 0
VVECTOR 1 9
SWIDTH1 0 -1000
DWIDTH1 0 -11
BITMAP 
80
40
00
40
40
40
40
40
ENDCHAR
STARTCHAR char94
ENCODING 148
SWIDTH 273 0
DWIDTH 3 0
BBX 3 8 0 0
VVECTOR 2 9
SWIDTH1 0 -1000
DWIDTH1 0 -11
BITMAP 
40
A0
00
40
40
40
40
40
ENDCHAR
STARTCHAR char95
ENCODING 149
SWIDTH 273 0
DWIDTH 3 0
BBX 3 7 0 0
VVECTOR 2 9
SWIDTH1 0 -1000
DWIDTH1 0 -11
BITMAP 
A0
00
40
40
40
40
40
ENDCHAR
STARTCHAR char96
ENCODING 150
SWIDTH 636 0
DWIDTH 7 0
BBX 5 8 1 0
VVECTOR 4 9
SWIDTH1 0 -1000
DWIDTH1 0 -11
BITMAP 
68
B0
00
B0
C8
88
88
88
ENDCHAR
STARTCHAR char97
ENCODING 151
SWIDTH 545 0
DWIDTH 6 0
BBX 4 8 1 0
VVECTOR 3 9
SWIDTH1 0 -1000
DWIDTH1 0 -11
BITMAP 
20
40
00
60
90
90
90
60
ENDCHAR
STARTCHAR char98
ENCODING 152
SWIDTH 545 0
DWIDTH 6 0
BBX 4 8 1 0
VVECTOR 3 9
SWIDTH1 0 -1000
DWIDTH1 0 -11
BITMAP 
40
20
00
60
90
90
90
60
ENDCHAR
STARTCHAR char99
ENCODING 153
SWIDTH 545 0
DWIDTH 6 0
BBX 4 8 1 0
VVECTOR 3 9
SWIDTH1 0 -1000
DWIDTH1 0 -11
BITMAP 
60
90
00
60
90
90
90
60
ENDCHAR
STARTCHAR char9A
ENCODING 154
SWIDTH 545 0
DWIDTH 6 0
BBX 4 7 1 0
VVECTOR 3 9
SWIDTH1 0 -1000
DWIDTH1 0 -11
BITMAP 
90
00
60
90
90
90
60
ENDCHAR
STARTCHAR char9B
ENCODING 155
SWIDTH 545 0
DWIDTH 6 0
BBX 5 8 1 0
VVECTOR 4 9
SWIDTH1 0 -1000
DWIDTH1 0 -11
BITMAP 
68
B0
00
60
90
90
90
60
ENDCHAR
STARTCHAR char9C
ENCODING 156
SWIDTH 636 0
DWIDTH 7 0
BBX 5 8 1 0
VVECTOR 4 9
SWIDTH1 0 -1000
DWIDTH1 0 -11
BITMAP 
10
20
00
88
88
88
98
68
ENDCHAR
STARTCHAR char9D
ENCODING 157
SWIDTH 636 0
DWIDTH 7 0
BBX 5 8 1 0
VVECTOR 4 9
SWIDTH1 0 -1000
DWIDTH1 0 -11
BITMAP 
40
20
00
88
88
88
98
68
ENDCHAR
STARTCHAR char9E
ENCODING 158
SWIDTH 636 0
DWIDTH 7 0
BBX 5 8 1 0
VVECTOR 4 9
SWIDTH1 0 -1000
DWIDTH1 0 -11
BITMAP 
20
50
00
88
88
88
98
68
ENDCHAR
STARTCHAR char9F
ENCODING 159
SWIDTH 636 0
DWIDTH 7 0
BBX 5 7 1 0
VVECTOR 4 9
SWIDTH1 0 -1000
DWIDTH1 0 -11
BITMAP 
50
00
88
88
88
98
68
ENDCHAR
STARTCHAR charA0
ENCODING 160
SWIDTH 636 0
DWIDTH 7 0
BBX 5 7 1 -1
VVECTOR 4 9
SWIDTH1 0 -1000
DWIDTH1 0 -11
BITMAP 
20
F8
20
20
20
20
20
ENDCHAR
STARTCHAR charA1
ENCODING 161
SWIDTH 455 0
DWIDTH 5 0
BBX 3 4 1 2
VVECTOR 3 9
SWIDTH1 0 -1000
DWIDTH1 0 -11
BITMAP 
40
A0
A0
40
ENDCHAR
STARTCHAR charA2
ENCODING 162
SWIDTH 545 0
DWIDTH 6 0
BBX 4 6 1 0
VVECTOR 3 9
SWIDTH1 0 -1000
DWIDTH1 0 -11
BITMAP 
20
70
80
80
70
20
ENDCHAR
STARTCHAR charA3
ENCODING 163
SWIDTH 636 0
DWIDTH 7 0
BBX 5 6 1 0
VVECTOR 4 9
SWIDTH1 0 -1000
DWIDTH1 0 -11
BITMAP 
30
40
E0
40
48
70
ENDCHAR
STARTCHAR charA4
ENCODING 164
SWIDTH 545 0
DWIDTH 6 0
BBX 4 7 1 -1
VVECTOR 3 9
SWIDTH1 0 -1000
DWIDTH1 0 -11
BITMAP 
60
80
60
90
60
10
60
ENDCHAR
STARTCHAR charA5
ENCODING 165
SWIDTH 455 0
DWIDTH 5 0
BBX 3 2 1 2
VVECTOR 3 9
SWIDTH1 0 -1000
DWIDTH1 0 -11
BITMAP 
E0
E0
ENDCHAR
STARTCHAR charA6
ENCODING 166
SWIDTH 727 0
DWIDTH 8 0
BBX 6 7 1 -1
VVECTOR 4 9
SWIDTH1 0 -1000
DWIDTH1 0 -11
BITMAP 
6C
E8
68
28
28
28
28
ENDCHAR
STARTCHAR charA7
ENCODING 167
SWIDTH 636 0
DWIDTH 7 0
BBX 5 6 1 0
VVECTOR 4 9
SWIDTH1 0 -1000
DWIDTH1 0 -11
BITMAP 
70
88
B0
88
88
B0
ENDCHAR
STARTCHAR charA8
ENCODING 168
SWIDTH 727 0
DWIDTH 8 0
BBX 6 7 1 0
VVECTOR 4 9
SWIDTH1 0 -1000
DWIDTH1 0 -11
BITMAP 
78
84
B4
A4
A4
84
78
ENDCHAR
STARTCHAR charA9
ENCODING 169
SWIDTH 727 0
DWIDTH 8 0
BBX 6 7 1 0
VVECTOR 4 9
SWIDTH1 0 -1000
DWIDTH1 0 -11
BITMAP 
78
84
B4
A4
B4
84
78
ENDCHAR
STARTCHAR charAA
ENCODING 170
SWIDTH 909 0
DWIDTH 10 0
BBX 8 3 1 3
VVECTOR 5 9
SWIDTH1 0 -1000
DWIDTH1 0 -11
BITMAP 
F1
5B
55
ENDCHAR
STARTCHAR charAB
ENCODING 171
SWIDTH 545 0
DWIDTH 6 0
BBX 2 2 2 6
VVECTOR 3 9
SWIDTH1 0 -1000
DWIDTH1 0 -11
BITMAP 
40
80
ENDCHAR
STARTCHAR charAC
ENCODING 172
SWIDTH 545 0
DWIDTH 6 0
BBX 4 1 1 7
VVECTOR 3 9
SWIDTH1 0 -1000
DWIDTH1 0 -11
BITMAP 
90
ENDCHAR
STARTCHAR charAD
ENCODING 173
SWIDTH 818 0
DWIDTH 9 0
BBX 7 5 1 0
VVECTOR 5 9
SWIDTH1 0 -1000
DWIDTH1 0 -11
BITMAP 
08
FE
10
FE
20
ENDCHAR
STARTCHAR charAE
ENCODING 174
SWIDTH 727 0
DWIDTH 8 0
BBX 6 6 1 0
VVECTOR 4 9
SWIDTH1 0 -1000
DWIDTH1 0 -11
BITMAP 
7C
90
9C
F0
90
9C
ENDCHAR
STARTCHAR charAF
ENCODING 175
SWIDTH 636 0
DWIDTH 7 0
BBX 5 6 1 0
VVECTOR 4 9
SWIDTH1 0 -1000
DWIDTH1 0 -11
BITMAP 
70
98
A8
C8
88
70
ENDCHAR
STARTCHAR charB0
ENCODING 176
SWIDTH 818 0
DWIDTH 9 0
BBX 7 4 1 1
VVECTOR 5 9
SWIDTH1 0 -1000
DWIDTH1 0 -11
BITMAP 
6C
92
92
6C
ENDCHAR
STARTCHAR charB1
ENCODING 177
SWIDTH 818 0
DWIDTH 9 0
BBX 7 5 1 0
VVECTOR 5 9
SWIDTH1 0 -1000
DWIDTH1 0 -11
BITMAP 
10
FE
10
00
FE
ENDCHAR
STARTCHAR charB2
ENCODING 178
SWIDTH 545 0
DWIDTH 6 0
BBX 4 5 1 0
VVECTOR 3 9
SWIDTH1 0 -1000
DWIDTH1 0 -11
BITMAP 
20
40
20
00
F0
ENDCHAR
STARTCHAR charB3
ENCODING 179
SWIDTH 545 0
DWIDTH 6 0
BBX 4 5 1 0
VVECTOR 3 9
SWIDTH1 0 -1000
DWIDTH1 0 -11
BITMAP 
40
20
40
00
F0
ENDCHAR
STARTCHAR charB4
ENCODING 180
SWIDTH 636 0
DWIDTH 7 0
BBX 5 6 1 0
VVECTOR 4 9
SWIDTH1 0 -1000
DWIDTH1 0 -11
BITMAP 
88
50
20
F8
20
20
ENDCHAR
STARTCHAR charB5
ENCODING 181
SWIDTH 636 0
DWIDTH 7 0
BBX 6 6 1 -1
VVECTOR 4 9
SWIDTH1 0 -1000
DWIDTH1 0 -11
BITMAP 
90
90
90
90
EC
80
ENDCHAR
STARTCHAR charB6
ENCODING 182
SWIDTH 545 0
DWIDTH 6 0
BBX 4 6 1 0
VVECTOR 3 9
SWIDTH1 0 -1000
DWIDTH1 0 -11
BITMAP 
60
10
70
90
90
60
ENDCHAR
STARTCHAR charB7
ENCODING 183
SWIDTH 727 0
DWIDTH 8 0
BBX 6 8 1 -1
VVECTOR 4 9
SWIDTH1 0 -1000
DWIDTH1 0 -11
BITMAP 
F8
44
20
10
10
20
44
F8
ENDCHAR
STARTCHAR charB8
ENCODING 184
SWIDTH 727 0
DWIDTH 8 0
BBX 6 6 1 0
VVECTOR 4 9
SWIDTH1 0 -1000
DWIDTH1 0 -11
BITMAP 
FC
48
48
48
48
48
ENDCHAR
STARTCHAR charB9
ENCODING 185
SWIDTH 636 0
DWIDTH 7 0
BBX 5 5 1 0
VVECTOR 4 9
SWIDTH1 0 -1000
DWIDTH1 0 -11
BITMAP 
F8
50
50
50
50
ENDCHAR
STARTCHAR charBA
ENCODING 186
SWIDTH 545 0
DWIDTH 6 0
BBX 5 9 0 -2
VVECTOR 3 9
SWIDTH1 0 -1000
DWIDTH1 0 -11
BITMAP 
18
20
20
20
20
20
20
20
C0
ENDCHAR
STARTCHAR charBB
ENCODING 187
SWIDTH 545 0
DWIDTH 6 0
BBX 4 7 1 0
VVECTOR 3 9
SWIDTH1 0 -1000
DWIDTH1 0 -11
BITMAP 
60
10
70
90
70
00
F0
ENDCHAR
STARTCHAR charBC
ENCODING 188
SWIDTH 545 0
DWIDTH 6 0
BBX 4 7 1 0
VVECTOR 3 9
SWIDTH1 0 -1000
DWIDTH1 0 -11
BITMAP 
60
90
90
90
60
00
F0
ENDCHAR
STARTCHAR charBD
ENCODING 189
SWIDTH 636 0
DWIDTH 7 0
BBX 5 6 1 0
VVECTOR 4 9
SWIDTH1 0 -1000
DWIDTH1 0 -11
BITMAP 
70
88
88
88
50
D8
ENDCHAR
STARTCHAR charBE
ENCODING 190
SWIDTH 818 0
DWIDTH 9 0
BBX 7 5 1 0
VVECTOR 5 9
SWIDTH1 0 -1000
DWIDTH1 0 -11
BITMAP 
6C
12
7E
90
6E
ENDCHAR
STARTCHAR charBF
ENCODING 191
SWIDTH 545 0
DWIDTH 6 0
BBX 4 5 1 0
VVECTOR 3 9
SWIDTH1 0 -1000
DWIDTH1 0 -11
BITMAP 
60
90
F0
90
60
ENDCHAR
STARTCHAR charC0
ENCODING 192
SWIDTH 636 0
DWIDTH 7 0
BBX 5 6 1 0
VVECTOR 4 9
SWIDTH1 0 -1000
DWIDTH1 0 -11
BITMAP 
20
00
20
40
88
70
ENDCHAR
STARTCHAR charC1
ENCODING 193
SWIDTH 455 0
DWIDTH 5 0
BBX 1 6 2 0
VVECTOR 3 9
SWIDTH1 0 -1000
DWIDTH1 0 -11
BITMAP 
80
00
80
80
80
80
ENDCHAR
STARTCHAR charC2
ENCODING 194
SWIDTH 818 0
DWIDTH 9 0
BBX 7 3 1 0
VVECTOR 5 9
SWIDTH1 0 -1000
DWIDTH1 0 -11
BITMAP 
FE
02
02
ENDCHAR
STARTCHAR charC3
ENCODING 195
SWIDTH 818 0
DWIDTH 9 0
BBX 8 8 1 -1
VVECTOR 5 9
SWIDTH1 0 -1000
DWIDTH1 0 -11
BITMAP 
07
04
08
08
10
D0
20
20
ENDCHAR
STARTCHAR charC4
ENCODING 196
SWIDTH 455 0
DWIDTH 5 0
BBX 3 7 1 -1
VVECTOR 3 9
SWIDTH1 0 -1000
DWIDTH1 0 -11
BITMAP 
20
40
E0
40
40
40
80
ENDCHAR
STARTCHAR charC5
ENCODING 197
SWIDTH 727 0
DWIDTH 8 0
BBX 6 5 1 1
VVECTOR 4 9
SWIDTH1 0 -1000
DWIDTH1 0 -11
BITMAP 
64
98
00
64
98
ENDCHAR
STARTCHAR charC6
ENCODING 198
SWIDTH 636 0
DWIDTH 7 0
BBX 5 6 1 0
VVECTOR 4 9
SWIDTH1 0 -1000
DWIDTH1 0 -11
BITMAP 
20
20
50
50
88
F8
ENDCHAR
STARTCHAR charC7
ENCODING 199
SWIDTH 727 0
DWIDTH 8 0
BBX 5 3 1 2
VVECTOR 4 9
SWIDTH1 0 -1000
DWIDTH1 0 -11
BITMAP 
48
90
48
ENDCHAR
STARTCHAR charC8
ENCODING 200
SWIDTH 727 0
DWIDTH 8 0
BBX 5 3 2 2
VVECTOR 5 9
SWIDTH1 0 -1000
DWIDTH1 0 -11
BITMAP 
90
48
90
ENDCHAR
STARTCHAR charC9
ENCODING 201
SWIDTH 818 0
DWIDTH 9 0
BBX 7 1 1 0
VVECTOR 5 9
SWIDTH1 0 -1000
DWIDTH1 0 -11
BITMAP 
92
ENDCHAR
STARTCHAR charCA
ENCODING 202
SWIDTH 364 0
DWIDTH 4 0
BBX 0 0 0 -2
VVECTOR 0 -2
SWIDTH1 0 0
DWIDTH1 0 0
BITMAP 
ENDCHAR
STARTCHAR charCB
ENCODING 203
SWIDTH 636 0
DWIDTH 7 0
BBX 5 8 1 0
VVECTOR 4 9
SWIDTH1 0 -1000
DWIDTH1 0 -11
BITMAP 
10
20
00
70
88
F8
88
88
ENDCHAR
STARTCHAR charCC
ENCODING 204
SWIDTH 636 0
DWIDTH 7 0
BBX 5 8 1 0
VVECTOR 4 9
SWIDTH1 0 -1000
DWIDTH1 0 -11
BITMAP 
68
B0
00
70
88
F8
88
88
ENDCHAR
STARTCHAR charCD
ENCODING 205
SWIDTH 636 0
DWIDTH 7 0
BBX 5 8 1 0
VVECTOR 4 9
SWIDTH1 0 -1000
DWIDTH1 0 -11
BITMAP 
68
B0
00
70
88
88
88
70
ENDCHAR
STARTCHAR charCE
ENCODING 206
SWIDTH 909 0
DWIDTH 10 0
BBX 8 6 1 0
VVECTOR 5 9
SWIDTH1 0 -1000
DWIDTH1 0 -11
BITMAP 
7F
88
8E
88
88
7F
ENDCHAR
STARTCHAR charCF
ENCODING 207
SWIDTH 818 0
DWIDTH 9 0
BBX 7 5 1 0
VVECTOR 5 9
SWIDTH1 0 -1000
DWIDTH1 0 -11
BITMAP 
6C
92
9E
90
6E
ENDCHAR
STARTCHAR charD0
ENCODING 208
SWIDTH 455 0
DWIDTH 5 0
BBX 3 1 1 3
VVECTOR 3 9
SWIDTH1 0 -1000
DWIDTH1 0 -11
BITMAP 
E0
ENDCHAR
STARTCHAR charD1
ENCODING 209
SWIDTH 818 0
DWIDTH 9 0
BBX 9 1 0 3
VVECTOR 5 9
SWIDTH1 0 -1000
DWIDTH1 0 -11
BITMAP 
FF80
ENDCHAR
STARTCHAR charD2
ENCODING 210
SWIDTH 636 0
DWIDTH 7 0
BBX 5 2 1 4
VVECTOR 4 9
SWIDTH1 0 -1000
DWIDTH1 0 -11
BITMAP 
D8
90
ENDCHAR
STARTCHAR charD3
ENCODING 211
SWIDTH 636 0
DWIDTH 7 0
BBX 5 2 1 4
VVECTOR 4 9
SWIDTH1 0 -1000
DWIDTH1 0 -11
BITMAP 
48
D8
ENDCHAR
STARTCHAR charD4
ENCODING 212
SWIDTH 364 0
DWIDTH 4 0
BBX 2 2 1 4
VVECTOR 2 9
SWIDTH1 0 -1000
DWIDTH1 0 -11
BITMAP 
C0
80
ENDCHAR
STARTCHAR charD5
ENCODING 213
SWIDTH 364 0
DWIDTH 4 0
BBX 2 2 1 4
VVECTOR 2 9
SWIDTH1 0 -1000
DWIDTH1 0 -11
BITMAP 
40
C0
ENDCHAR
STARTCHAR charD6
ENCODING 214
SWIDTH 818 0
DWIDTH 9 0
BBX 7 5 1 0
VVECTOR 5 9
SWIDTH1 0 -1000
DWIDTH1 0 -11
BITMAP 
10
00
FE
00
10
ENDCHAR
STARTCHAR charD7
ENCODING 215
SWIDTH 818 0
DWIDTH 9 0
BBX 5 5 2 0
VVECTOR 5 9
SWIDTH1 0 -1000
DWIDTH1 0 -11
BITMAP 
20
50
88
50
20
ENDCHAR
STARTCHAR charD8
ENCODING 216
SWIDTH 636 0
DWIDTH 7 0
BBX 5 9 1 -2
VVECTOR 4 9
SWIDTH1 0 -1000
DWIDTH1 0 -11
BITMAP 
50
00
88
88
50
50
20
20
C0
ENDCHAR
STARTCHAR missing
ENCODING -1
SWIDTH 727 0
DWIDTH 8 0
BBX 6 9 1 -1
VVECTOR 4 9
SWIDTH1 0 -1000
DWIDTH1 0 -11
BITMAP 
FC
8C
E4
E4
CC
CC
FC
CC
FC
ENDCHAR
ENDFONT
